<svg width="15.000000" height="12.000000" viewBox="0 0 15 12" fill="none" xmlns="http://www.w3.org/2000/svg" xmlns:xlink="http://www.w3.org/1999/xlink">
	<defs/>
	<path id="Vector" d="M6.75 11.62C6.9 11.47 6.98 11.28 6.99 11.05C6.99 10.82 6.92 10.62 6.77 10.47L2.76 6.47L13.54 6.47C13.77 6.47 13.97 6.39 14.12 6.23C14.28 6.07 14.36 5.88 14.36 5.65C14.36 5.42 14.28 5.22 14.12 5.06C13.97 4.91 13.77 4.83 13.54 4.83L2.76 4.83L6.77 0.82C6.92 0.67 6.99 0.48 6.99 0.25C6.98 0.02 6.9 -0.18 6.75 -0.33C6.6 -0.48 6.41 -0.55 6.18 -0.55C5.95 -0.55 5.75 -0.48 5.6 -0.33L0.2 5.07C0.12 5.14 0.06 5.23 0.03 5.33C0 5.43 -0.02 5.54 -0.02 5.65C-0.02 5.76 0 5.86 0.03 5.95C0.06 6.05 0.12 6.14 0.2 6.22L5.6 11.62C5.75 11.77 5.95 11.85 6.18 11.85C6.41 11.85 6.6 11.77 6.75 11.62Z" fill="#474A54" fill-opacity="1.000000" fill-rule="nonzero"/>
</svg>
