<svg width="37.000000" height="34.000000" viewBox="0 0 37 34" fill="none" xmlns="http://www.w3.org/2000/svg" xmlns:xlink="http://www.w3.org/1999/xlink">
	<defs/>
	<path id="Vector" d="M18.51 0C8.29 0 0 7.58 0 14.14C0 18.71 3.68 22.85 8.59 25.34C7.91 27.45 6.55 30.4 3.85 33.04C3.5 33.39 3.47 33.55 3.57 33.75C3.75 34.15 4.2 33.98 5 33.8C9.25 32.81 14.11 29.45 16.46 27.68C17.14 27.75 17.83 27.8 18.48 27.8C27.62 27.8 37 21.2 37 14.14C37.02 7.72 28.75 0 18.51 0ZM10.87 18.39C8.9 18.39 7.32 16.83 7.32 14.92C7.32 13.01 8.92 11.45 10.87 11.45C12.82 11.45 14.42 13.01 14.42 14.92C14.4 16.83 12.82 18.39 10.87 18.39ZM18.93 18.39C16.98 18.39 15.38 16.83 15.38 14.92C15.38 13.01 16.98 11.45 18.93 11.45C20.88 11.45 22.48 13.01 22.48 14.92C22.45 16.83 20.88 18.39 18.93 18.39ZM26.8 18.39C24.85 18.39 23.25 16.83 23.25 14.92C23.25 13.01 24.85 11.45 26.8 11.45C28.75 11.45 30.35 13.01 30.35 14.92C30.35 16.83 28.75 18.39 26.8 18.39Z"  fill-rule="nonzero"/>
</svg>
