<svg width="14.000000" height="14.000000" viewBox="0 0 14 14" fill="none" xmlns="http://www.w3.org/2000/svg" xmlns:xlink="http://www.w3.org/1999/xlink">
	<defs/>
	<path id="Vector" d="M13.89 12.2C12.99 10.64 11.59 9.44 9.92 8.78C10.74 8.17 11.35 7.31 11.65 6.33C11.96 5.35 11.95 4.3 11.62 3.33C11.3 2.36 10.68 1.52 9.85 0.92C9.02 0.32 8.02 0 7 0C5.97 0 4.97 0.32 4.14 0.92C3.31 1.52 2.69 2.36 2.36 3.33C2.04 4.3 2.03 5.35 2.34 6.33C2.64 7.31 3.25 8.17 4.07 8.78C2.4 9.44 1 10.64 0.1 12.2C0 12.37 -0.03 12.58 0.02 12.78C0.07 12.98 0.2 13.15 0.38 13.25C0.56 13.35 0.77 13.38 0.97 13.33C1.16 13.27 1.33 13.14 1.43 12.97C2 11.99 2.81 11.18 3.78 10.62C4.76 10.05 5.87 9.76 7 9.76C8.12 9.76 9.23 10.05 10.21 10.62C11.18 11.18 11.99 11.99 12.56 12.97C12.62 13.08 12.72 13.18 12.84 13.25C12.96 13.32 13.09 13.35 13.22 13.35C13.36 13.35 13.49 13.32 13.61 13.25C13.7 13.2 13.77 13.13 13.84 13.05C13.9 12.97 13.94 12.88 13.97 12.78C14 12.68 14 12.58 13.99 12.48C13.98 12.38 13.94 12.28 13.89 12.2ZM3.66 4.88C3.66 4.21 3.85 3.57 4.22 3.02C4.59 2.47 5.11 2.04 5.72 1.79C6.33 1.54 7 1.47 7.65 1.6C8.29 1.73 8.89 2.05 9.36 2.51C9.82 2.98 10.14 3.58 10.27 4.22C10.4 4.87 10.33 5.54 10.08 6.15C9.83 6.76 9.4 7.28 8.85 7.65C8.3 8.02 7.66 8.21 7 8.21C6.11 8.21 5.26 7.86 4.63 7.24C4.01 6.61 3.66 5.76 3.66 4.88Z" fill="#474A54" fill-opacity="1.000000" fill-rule="nonzero"/>
</svg>
